PathFileType	4	(X/Y/Z)	C:/Users/beibeiliu/ov580/test_trc\sequence.25_training_dense_left.trc
DataRate	CameraRate	NumFrames	NumMarkers	Units	OrigDataRate	OrigDataStartFrame	OrigNumFrames
120	120	16	19	mm	120	38	300
Frame#	Time	ThumbCMC			ThumbMCP			ThumbIP			ThumbTip			IndexMCP			IndexPIP			IndexTip			MiddleMCP			MiddlePIP			MiddleTip			RingMCP			RingPIP			RingTip			PinkyMCP			PinkyPIP			PinkyTip			BackHand1			BackHand2			BackHand3	
		X0	Y0	Z0	X1	Y1	Z1	X2	Y2	Z2	X3	Y3	Z3	X4	Y4	Z4	X5	Y5	Z5	X6	Y6	Z6	X7	Y7	Z7	X8	Y8	Z8	X9	Y9	Z9	X10	Y10	Z10	X11	Y11	Z11	X12	Y12	Z12	X13	Y13	Z13	X14	Y14	Z14	X15	Y15	Z15	X16	Y16	Z16	X17	Y17	Z17	X18	Y18	Z18	
37	0.308333	-228.396	40.6744	28.5522	-204.915	51.0435	5.34196	-189.51	45.0769	-8.10997	-171.57	31.3326	-22.5906	-226.521	26.0508	-38.5128	-220.998	28.5234	-58.1273	-214.567	32.0963	-78.6108	-215.102	9.00171	-37.2571	-204.709	14.0336	-59.9158	-190.787	15.5191	-80.3768	-192.257	2.25548	-24.051	-174.199	24.0779	-14.8303	-183.187	23.3926	13.8672	-185.713	-8.61392	-9.95078	-171.218	11.0978	0.569398	-183.555	21.8581	18.7271	-228.74	-8.8448	12.108	-234.487	-14.2965	36.0375	-244.357	13.3436	17.5732	
38	0.316667	-230.031	37.6025	28.7762	-205.215	53.6741	7.30512	-188.857	46.3129	-10.5946	-174.476	30.7078	-18.4707	-229.128	25.9375	-34.2754	-222.722	30.6811	-58.5953	-213.86	28.3585	-78.5062	-218.229	12.3835	-38.3962	-205.138	13.9611	-61.0364	-190.094	15.9693	-84.0522	-192.816	6.44082	-24.9732	-174.272	23.1585	-14.6029	-183.66	25.5373	11.8111	-184.779	-4.58549	-10.0215	-171.178	11.3012	1.3271	-186.27	19.1861	25.1122	-225.892	-12.3887	11.5874	-236.559	-10.5611	34.7768	-246.313	11.5168	18.1395	
39	0.325	-231.272	35.7788	28.8961	-208.765	49.3161	10.0499	-189.813	43.5792	-11.3728	-172.817	25.8891	-21.9217	-227.737	23.8444	-38.9097	-222.913	26.5472	-55.5503	-213.606	27.8185	-79.8183	-215.066	7.37956	-41.3716	-204.104	12.9125	-62.3389	-192.459	14.035	-80.384	-193.769	6.20338	-23.9656	-174.744	22.6115	-12.0224	-185.188	23.3552	15.5345	-182.704	-4.46926	-10.1493	-172.878	12.814	2.595	-188.759	17.0295	23.5754	-229.225	-11.9648	10.2665	-234.557	-13.971	35.3891	-246.484	10.8108	20.351	
40	0.333333	-232.561	40.5963	27.4886	-209.132	49.3098	6.68578	-191.981	44.3822	-11.8927	-174.128	28.8419	-22.681	-228.579	21.3462	-38.7212	-222.049	25.8934	-57.52	-213.228	24.3731	-77.0875	-216.233	7.5336	-40.3286	-206.524	12.0917	-60.5257	-194.884	19.0462	-82.6003	-192.202	3.55891	-23.5853	-175.165	22.7903	-13.7444	-188.314	25.4868	14.1005	-187.311	-5.75031	-10.4528	-172.736	11.2546	1.60738	-188.697	19.8896	21.3902	-226.071	-15.7719	8.09876	-235.793	-14.261	35.9171	-246.506	6.55621	19.6115	
41	0.341667	-235.146	39.374	28.2856	-211.179	49.2841	10.6739	-191.388	44.3583	-12.7375	-177.147	26.8559	-21.0183	-231.167	22.7591	-35.4268	-224.471	24.4464	-54.7851	-214.06	23.5896	-75.2541	-216.642	6.52477	-40.9116	-207.58	12.0697	-61.1808	-192.88	13.7958	-82.0763	-192.825	1.78256	-23.3719	-177.838	23.7449	-14.7402	-188.543	27.377	11.3835	-183.408	-7.43847	-9.98271	-174.248	12.9211	1.84832	-190.113	17.4134	24.6488	-227.401	-14.4965	9.99898	-236.689	-12.4399	35.8998	-247.683	7.8875	21.3376	
42	0.35	-233.865	36.6564	26.8826	-212.088	52.453	7.98576	-194.431	40.453	-10.6531	-179.496	28.3513	-18.3307	-234.293	23.9002	-35.031	-224.18	25.099	-58.2381	-215.158	26.3994	-80.3163	-216.921	7.54967	-41.4085	-206.813	10.6736	-61.2809	-194.595	18.4738	-84.687	-193.52	2.60263	-22.3001	-175.118	21.8001	-11.4164	-188.345	27.118	12.2294	-184.079	-6.90113	-9.02898	-175.351	14.4719	1.36582	-190.863	20.4917	21.3981	-228.582	-14.405	12.8318	-235.72	-14.0555	38.027	-247.034	6.34626	21.9253	
43	0.358333	-235.868	38.4018	28.9403	-213.615	49.007	8.58058	-197.002	45.0906	-7.89172	-178.16	28.0415	-20.2779	-231.878	20.6613	-35.7225	-228.657	26.5636	-55.1635	-219.339	26.4564	-75.724	-218.291	6.48917	-37.0724	-209.651	14.4462	-62.6145	-196.094	17.16	-81.221	-193.487	6.14071	-24.142	-177.393	22.8071	-15.0703	-187.05	25.6772	13.8	-186.604	-2.67144	-10.7297	-175.604	14.658	0.644357	-188.685	21.9373	20.1305	-229.572	-12.6775	9.99465	-235.243	-16.7371	38.4123	-248.764	8.19757	22.7299	
44	0.366667	-235.494	35.3167	31.7001	-212.633	52.6725	8.80929	-194.979	45.5561	-13.0322	-181.711	28.262	-19.2468	-234.63	24.627	-33.5895	-228.977	25.9195	-54.0866	-219.062	26.6615	-77.815	-221.954	9.93398	-36.069	-211.083	12.465	-58.0695	-198.282	18.4918	-81.973	-193.34	5.96042	-24.3765	-177.991	22.8645	-15.3273	-187.985	25.2481	13.734	-190.179	-5.88351	-9.33183	-176.352	15.1876	2.55844	-193.999	21.6027	21.292	-230.036	-12.3212	12.3416	-238.757	-11.564	37.0049	-250.464	9.43462	19.1656	
45	0.375	-235.159	38.1653	29.4752	-211.669	51.0626	7.23747	-196.375	44.547	-7.3858	-181.216	33.057	-18.6587	-235.715	25.6983	-34.7414	-228.905	28.3515	-56.8709	-220.977	28.3802	-77.6846	-222.051	10.8259	-39.6656	-209.133	12.3321	-62.1413	-199.785	16.9794	-81.6536	-199.33	7.78399	-24.6752	-180.407	23.2301	-15.9847	-191.014	25.4439	14.1452	-187.907	-3.63355	-11.3094	-176.191	12.8022	1.07433	-189.885	21.4544	19.8856	-229.971	-14.7909	12.8575	-241.699	-12.0277	38.6707	-250.133	9.69144	21.7826	
46	0.383333	-235.981	40.8987	26.1829	-211.127	54.4465	7.64424	-196.052	45.861	-9.29196	-181.729	26.9611	-19.3456	-236.574	27.3955	-34.5442	-229.69	27.4129	-54.5785	-219.519	25.9688	-76.8508	-224.826	13.0358	-40.7264	-212.813	15.6245	-64.2271	-200.787	16.7357	-82.3883	-198.005	2.56051	-24.4392	-180.707	23.7657	-16.4487	-187.02	24.7522	11.8493	-189.005	-4.04011	-12.5357	-178.545	12.1993	-3.76021	-190.338	19.0213	17.9505	-234.184	-10.073	9.37902	-241.31	-11.2769	37.9441	-251.061	12.8741	20.2802	
47	0.391667	-233.486	44.5202	27.2312	-209.848	50.9299	7.26172	-192.591	47.2025	-14.0831	-178.428	30.7753	-23.2786	-235.484	30.2942	-38.743	-229.355	32.7023	-55.6117	-221.613	32.172	-79.2078	-225.671	13.5921	-39.0153	-213.842	14.3442	-62.8386	-202.636	19.1423	-84.9091	-197.43	5.87658	-27.5792	-181.029	22.056	-17.977	-187.275	24.8358	11.0416	-194.756	-4.78209	-12.9447	-179.398	11.1038	-1.40921	-193.795	17.9959	19.181	-234.766	-7.89572	11.3923	-245.161	-6.67948	32.9016	-252.591	16.2941	18.9057	
48	0.4	-230.743	46.4349	29.441	-206.294	52.4767	7.42444	-190.255	47.2637	-14.8597	-181.636	25.0103	-23.4761	-234.853	34.774	-37.62	-227.311	33.5964	-58.2234	-219.615	33.3779	-79.4282	-225.533	15.9253	-40.3922	-215.512	21.432	-65.055	-202.835	23.4379	-87.6921	-204.123	7.81538	-27.0199	-178.158	17.2193	-17.7198	-189.483	25.9739	8.62807	-193.396	-5.76239	-14.7509	-180.834	11.1389	-1.28626	-191.375	18.0478	16.6745	-238.465	-5.71941	9.72696	-245.232	-3.21944	31.2954	-250.94	18.1097	19.7277	
49	0.408333	-223.757	52.7774	25.2079	-201.387	52.7573	6.10626	-188.507	43.6569	-14.2193	-179.866	23.0169	-27.5155	-230.687	39.7392	-40.151	-223.043	40.2029	-61.1865	-216.393	39.6122	-80.0981	-226.14	22.1065	-43.1542	-215.072	22.3025	-64.6133	-201.852	19.6375	-89.4046	-203.89	6.41943	-30.0586	-179.249	16.682	-19.3523	-183.231	20.6993	7.56661	-204.168	-5.07364	-15.1553	-183.516	7.87434	-6.04307	-190.554	16.2946	19.4579	-242.251	1.77964	5.4617	-247.255	6.3265	32.4019	-249.393	28.0938	17.8195	
50	0.416667	-217.48	54.0093	30.412	-194.099	52.63	4.51562	-184.611	40.7127	-13.7395	-177.4	21.4531	-29.7695	-226.122	47.9354	-35.3373	-220.255	41.4992	-60.2828	-213.811	43.6854	-79.0249	-224.65	26.4661	-42.4791	-215.031	25.3792	-65.5805	-204.84	21.5073	-86.6133	-207.823	8.61263	-29.6953	-179.298	10.398	-18.8104	-185.342	18.1515	8.64064	-203.118	-5.48732	-16.3876	-183.887	0.526316	-5.21437	-189.988	15.3779	15.0829	-244.367	9.23038	7.23406	-250.614	10.6364	30.884	-247.168	35.5335	17.4655	
51	0.425	-209.578	54.876	30.8987	-184.678	51.6649	5.98034	-181.205	36.4596	-13.7875	-180.303	14.5267	-31.3113	-220.846	50.2127	-37.3824	-214.848	47.3989	-59.525	-208.997	43.804	-82.2685	-222.487	31.9861	-42.4916	-214.367	32.1887	-62.993	-203.743	23.2707	-91.4563	-208.025	12.1527	-31.1545	-181.625	9.97792	-20.9438	-184.764	11.9667	5.29124	-210.616	-7.42208	-17.3236	-187.667	0.350878	-4.28686	-195.657	14.0877	13.3981	-243.877	18.3887	4.86445	-250.147	17.1177	31.3503	-242.464	45.5781	16.8262	
52	0.433333	-205.433	51.3302	27.41	-182.33	45.2453	7.42433	-177.703	30.8	-20.9401	-182.98	10.3627	-31.5235	-215.475	50.631	-36.1984	-210.403	47.7638	-58.5217	-204.278	43.3914	-81.8062	-220.003	33.4975	-47.2369	-211.859	34.0407	-64.714	-201.602	29.2175	-89.6755	-212.308	8.23014	-31.0287	-185.052	4.50507	-23.3401	-188.471	8.7781	4.82755	-214.097	-6.17245	-18.5653	-192.084	-3.09694	-5.03369	-198.034	10.131	17.8561	-241.847	24.4515	2.91239	-251.599	24.6473	32.2626	-235.793	50.8635	14.5403	
